<?xml version="1.0" standalone="no"?>
<!DOCTYPE svg PUBLIC "-//W3C//DTD SVG 20010904//EN"
 "http://www.w3.org/TR/2001/REC-SVG-20010904/DTD/svg10.dtd">
<svg version="1.0" xmlns="http://www.w3.org/2000/svg"
 width="150.000000pt" height="150.000000pt" viewBox="0 0 150.000000 150.000000"
 preserveAspectRatio="xMidYMid meet">

<g transform="translate(0.000000,150.000000) scale(0.100000,-0.100000)"
fill="#000000" stroke="none">
<path d="M795 1028 c4 -16 3 -19 -3 -9 -8 11 -16 9 -43 -10 -19 -13 -36 -25
-38 -26 -9 -6 22 -31 42 -35 24 -5 51 14 39 28 -4 4 -1 4 6 0 7 -4 19 -3 26 4
21 17 58 -40 54 -82 -4 -42 -37 -49 -70 -16 -22 22 -23 22 -26 3 -2 -11 -15
-34 -28 -52 l-24 -32 37 -7 c27 -5 45 -2 66 10 16 9 45 16 65 16 l36 0 -21 22
-22 22 21 38 c12 21 24 38 28 38 12 0 45 29 33 30 -6 0 -25 -11 -42 -26 l-30
-25 -26 51 c-14 28 -30 48 -34 45 -5 -2 -8 3 -7 13 1 11 -7 18 -22 20 -21 3
-23 0 -17 -20z"/>
<path d="M827 973 c-3 -5 -2 -15 2 -22 7 -10 10 -10 16 -1 4 6 3 16 -3 22 -5
5 -12 6 -15 1z"/>
<path d="M1002 964 c4 -21 22 -23 26 -1 2 10 -3 17 -13 17 -10 0 -15 -6 -13
-16z"/>
<path d="M936 839 c12 -14 31 -19 67 -19 63 0 59 5 -21 23 -61 14 -62 14 -46
-4z"/>
<path d="M436 823 c-11 -11 -6 -23 9 -23 8 0 15 4 15 9 0 13 -16 22 -24 14z"/>
<path d="M472 723 c4 -140 23 -141 23 -1 0 74 -4 103 -13 106 -10 3 -12 -20
-10 -105z"/>
<path d="M516 823 c-11 -11 -6 -23 9 -23 8 0 15 4 15 9 0 13 -16 22 -24 14z"/>
<path d="M360 790 c0 -11 -7 -20 -15 -20 -8 0 -15 -4 -15 -10 0 -5 7 -10 15
-10 12 0 15 -13 15 -59 0 -68 13 -84 62 -78 l33 3 0 75 0 74 -37 3 c-30 3 -38
7 -38 23 0 10 -4 19 -10 19 -5 0 -10 -9 -10 -20z m70 -100 c0 -52 -2 -60 -19
-60 -23 0 -31 19 -31 76 0 40 2 44 25 44 24 0 25 -3 25 -60z"/>
<path d="M836 788 c-33 -17 -45 -19 -73 -10 -32 10 -33 9 -27 -11 21 -69 19
-67 91 -67 60 1 70 3 86 25 9 13 20 38 23 55 6 29 5 30 -27 30 -19 -1 -52 -10
-73 -22z m64 -13 c0 -16 -35 -21 -44 -6 -8 12 4 21 26 21 10 0 18 -7 18 -15z"/>
<path d="M956 794 c-11 -30 -6 -31 49 -15 30 9 55 19 55 24 0 4 -22 7 -49 7
-35 0 -51 -4 -55 -16z"/>
<path d="M600 781 c0 -12 36 -21 83 -21 26 0 37 4 37 15 0 12 -13 15 -60 15
-33 0 -60 -4 -60 -9z"/>
<path d="M50 763 c-1 -4 -1 -131 -1 -178 1 -19 6 -35 11 -35 6 0 10 15 10 34
0 34 1 35 33 29 83 -13 126 115 50 146 -23 9 -102 12 -103 4z m104 -29 c21
-20 20 -63 -1 -86 -18 -21 -53 -24 -71 -6 -16 16 -16 95 1 101 25 11 56 7 71
-9z"/>
<path d="M223 763 c-26 -10 -12 -20 28 -19 34 1 43 -3 50 -21 8 -22 6 -23 -34
-23 -48 0 -67 -13 -67 -47 0 -30 29 -44 82 -39 l43 4 3 52 c4 68 -16 100 -61
99 -17 0 -38 -3 -44 -6z m72 -89 c12 -13 13 -19 4 -31 -18 -20 -73 -13 -77 11
-7 35 44 49 73 20z"/>
<path d="M512 693 c4 -97 23 -97 23 1 0 48 -4 71 -13 74 -10 3 -12 -14 -10
-75z"/>
<path d="M1134 747 c-38 -33 -37 -81 1 -114 21 -18 35 -23 54 -18 42 10 48 25
7 18 -44 -7 -76 16 -76 57 0 40 32 64 75 57 38 -6 49 7 13 17 -37 9 -45 7 -74
-17z"/>
<path d="M1265 760 c-16 -7 -11 -9 22 -9 32 -1 45 -6 53 -22 15 -27 7 -34 -36
-30 -41 3 -64 -12 -64 -44 0 -28 48 -52 77 -37 10 5 24 7 31 5 19 -7 16 111
-4 131 -17 17 -47 20 -79 6z m75 -85 c17 -21 -4 -45 -40 -45 -15 0 -33 7 -40
15 -17 21 4 45 40 45 15 0 33 -7 40 -15z"/>
<path d="M1387 763 c-11 -10 -8 -143 3 -143 6 0 10 24 10 53 0 55 12 77 42 77
10 0 18 5 18 10 0 14 -24 12 -38 -2 -10 -10 -14 -10 -21 0 -4 7 -10 9 -14 5z"/>
<path d="M636 715 c-3 -8 -15 -14 -28 -12 -17 1 -22 -2 -20 -16 2 -11 -5 -25
-15 -32 -17 -13 -17 -14 0 -21 11 -4 17 -15 15 -28 -2 -17 2 -20 20 -18 13 2
25 -3 28 -12 8 -21 24 -21 24 0 0 12 6 15 26 10 23 -6 26 -5 21 14 -3 13 0 23
9 27 18 7 18 29 0 36 -9 4 -12 14 -9 28 5 18 3 20 -16 14 -14 -4 -23 -2 -27 9
-8 20 -20 20 -28 1z m42 -37 c26 -26 8 -78 -27 -78 -18 0 -51 29 -51 46 0 34
54 56 78 32z"/>
<path d="M632 671 c-21 -13 -10 -46 16 -49 27 -4 40 22 22 43 -14 17 -20 18
-38 6z"/>
<path d="M996 714 c-4 -10 -13 -13 -25 -9 -11 3 -22 1 -26 -5 -4 -6 -13 -9
-21 -6 -8 3 -14 1 -14 -3 0 -5 7 -11 15 -15 8 -3 15 -1 15 5 0 6 5 7 12 3 8
-5 6 -11 -5 -19 -21 -15 -22 -31 -3 -38 9 -4 12 -14 9 -27 -4 -16 -2 -19 12
-14 12 5 23 1 32 -12 14 -18 15 -18 24 -1 7 12 17 16 31 11 18 -5 20 -3 15 15
-3 14 0 24 9 28 16 6 19 33 4 33 -5 0 -10 12 -10 26 0 21 -4 24 -20 19 -13 -4
-22 -1 -26 9 -3 9 -10 16 -14 16 -4 0 -11 -7 -14 -16z m42 -36 c16 -16 15 -53
-3 -68 -33 -27 -81 15 -64 58 9 24 47 30 67 10z"/>
<path d="M992 671 c-21 -13 -10 -46 16 -49 27 -4 40 22 22 43 -14 17 -20 18
-38 6z"/>
<path d="M730 690 c-8 -5 -12 -11 -9 -14 2 -3 11 -1 19 4 8 5 12 11 9 14 -2 3
-11 1 -19 -4z"/>
<path d="M770 680 c0 -6 27 -10 60 -10 33 0 60 4 60 10 0 6 -27 10 -60 10 -33
0 -60 -4 -60 -10z"/>
</g>
</svg>
